# Created by 3DAce v2.72


g
v -5.000000 0.500000 -1.500000
v -5.000000 -0.500000 -1.500000
v 5.000000 0.500000 3.500000
v 5.000000 -0.500000 3.500000
v 5.000000 0.500000 1.500000
v 5.000000 -0.500000 1.500000
v -5.000000 0.500000 -3.500000
v -5.000000 -0.500000 -3.500000
# 8 vertices

vt -2.370220 0.000950
vt 1.034670 -0.000920
vt 1.010310 1.000000
vt -2.370220 1.000000
vt 0.000000 0.000000
vt 1.000790 -0.001070
vt 1.000000 1.000000
vt 0.000000 1.000000
vt -2.363380 -0.007140
vt 1.024360 -0.009010
vt 1.000000 1.000000
vt -2.363380 1.000000
vt 0.000000 0.000000
vt 1.000790 -0.001070
vt 1.000000 1.000000
vt 0.000000 1.000000
vt 1.000790 0.002490
vt 1.000000 1.000000
vt 0.006250 1.000000
vt 0.007510 0.001460
vt 1.000790 0.004630
vt 1.000000 1.000000
vt 0.008810 1.000000
vt 0.010070 0.003600
# 24 texture vertices

vn -0.447214 0.000000 0.894427
vn -0.447214 0.000000 0.894427
vn -0.447214 0.000000 0.894427
vn -0.447214 0.000000 0.894427
vn 1.000000 0.000000 0.000000
vn 1.000000 0.000000 0.000000
vn 1.000000 0.000000 0.000000
vn 1.000000 0.000000 0.000000
vn 0.447214 0.000000 -0.894427
vn 0.447214 0.000000 -0.894427
vn 0.447214 0.000000 -0.894427
vn 0.447214 0.000000 -0.894427
vn -1.000000 0.000000 0.000000
vn -1.000000 0.000000 0.000000
vn -1.000000 0.000000 0.000000
vn -1.000000 0.000000 0.000000
vn 0.000000 1.000000 0.000000
vn 0.000000 1.000000 0.000000
vn 0.000000 1.000000 0.000000
vn 0.000000 1.000000 0.000000
vn 0.000000 -1.000000 0.000000
vn 0.000000 -1.000000 0.000000
vn 0.000000 -1.000000 0.000000
vn 0.000000 -1.000000 0.000000
# 24 vertex normals

g naname
f 2/1/1 4/2/2 3/3/3 1/4/4
f 4/5/5 6/6/6 5/7/7 3/8/8
f 6/9/9 8/10/10 7/11/11 5/12/12
f 8/13/13 2/14/14 1/15/15 7/16/16
f 1/17/17 3/18/18 5/19/19 7/20/20
f 8/21/21 6/22/22 4/23/23 2/24/24
# 6 elements

