# Created by 3DAce v2.72


g
v -5.000000 0.000000 -1.500000
v 5.000000 0.000000 3.500000
v 5.000000 0.000000 1.500000
v -5.000000 0.000000 -3.500000
# 4 vertices

vt 0.836920 -0.042820
vt 0.839680 0.823210
vt 0.145040 0.958330
vt 0.147480 -0.042820
vt 0.147480 -0.042820
vt 0.145040 0.958330
vt 0.839680 0.823210
vt 0.836920 -0.042820
# 8 texture vertices

vn 0.000000 1.000000 0.000000
vn 0.000000 1.000000 0.000000
vn 0.000000 1.000000 0.000000
vn 0.000000 1.000000 0.000000
vn 0.000000 -1.000000 0.000000
vn 0.000000 -1.000000 0.000000
vn 0.000000 -1.000000 0.000000
vn 0.000000 -1.000000 0.000000
# 8 vertex normals

g Course
f 1/1/1 2/2/2 3/3/3 4/4/4
f 4/5/5 3/6/6 2/7/7 1/8/8
# 2 elements

